<svg width="252" height="289" viewBox="0 0 252 289" fill="black" xmlns="http://www.w3.org/2000/svg">
<path fill-rule="evenodd" clip-rule="evenodd" d="M50.668 120.223V182.869C50.668 183.647 50.7417 184.167 50.7458 184.871C50.75 185.547 50.9125 186.012 50.9087 186.788C50.9 188.468 51.1548 189.071 51.1506 189.667C51.1472 190.107 51.1638 190.311 51.2118 190.645C51.2682 191.035 51.3695 191.086 51.3902 191.508C51.4522 192.781 51.9284 194.793 51.9451 195.112L52.4489 197.729C52.4825 197.899 52.5309 197.927 52.588 198.07C52.6968 198.342 52.6382 198.203 52.673 198.545C52.7229 199.028 52.8382 198.942 52.9058 199.352L54.6217 204.997C54.6285 205.016 54.6361 205.037 54.6425 205.056C54.649 205.076 54.6539 205.098 54.6599 205.119C54.6777 205.181 54.6811 205.232 54.7038 205.315C54.782 205.602 54.7801 205.514 54.8678 205.711C54.9385 205.869 54.9411 205.921 54.991 206.068L56.1014 208.878C56.1317 208.935 56.1094 208.862 56.1819 209.037L57.0127 210.927C57.0206 210.943 57.0297 210.965 57.038 210.981C57.0459 210.997 57.0573 211.018 57.0656 211.034C57.1559 211.208 57.0762 211.024 57.1525 211.186C57.1605 211.203 57.1707 211.224 57.1778 211.241L57.4182 211.801C57.4265 211.818 57.4356 211.839 57.4435 211.856L58.5566 214.103C58.5645 214.119 58.5747 214.14 58.5834 214.156C58.6375 214.26 58.6254 214.219 58.7025 214.357C58.7766 214.489 58.8008 214.54 58.8722 214.667L58.9297 214.77C58.9383 214.786 58.9489 214.806 58.9572 214.822L59.0359 214.984C59.0446 215 59.0551 215.02 59.0638 215.035C59.1417 215.176 59.0755 215.045 59.1545 215.185C59.1632 215.201 59.1749 215.22 59.1836 215.236L60.0726 216.827C60.1504 216.966 60.127 216.916 60.1939 217.026C60.203 217.041 60.2147 217.061 60.2238 217.076L63.4787 222.061C63.637 222.274 63.7656 222.432 63.9258 222.655L67.0613 226.639C67.0719 226.652 67.0874 226.67 67.0983 226.682L67.358 226.983C67.369 226.995 67.3845 227.013 67.395 227.026L67.6142 227.286C67.8093 227.508 67.9064 227.607 68.0961 227.844L69.0879 228.933C69.1888 229.036 69.2277 229.076 69.3215 229.179L69.5943 229.466C69.6061 229.478 69.6227 229.495 69.6344 229.506C69.6461 229.518 69.6631 229.534 69.6748 229.546C69.6862 229.558 69.7032 229.575 69.7149 229.586L70.955 230.826C70.9663 230.838 70.9833 230.855 70.9946 230.866C71.0064 230.878 71.023 230.894 71.0347 230.906L72.2483 232.093C72.4414 232.287 72.5579 232.426 72.782 232.599C73.0432 232.801 73.1014 232.89 73.3327 233.088L84.223 241.079C84.2381 241.088 84.2581 241.1 84.2733 241.109L87.6764 242.985C87.693 242.994 87.7149 243.002 87.7315 243.01L87.8442 243.058C87.8608 243.066 87.8823 243.075 87.899 243.083L89.61 243.932C89.7642 244.01 89.7887 244.011 89.9418 244.08L90.0499 244.132C90.0661 244.14 90.0858 244.152 90.1013 244.161C90.1285 244.175 90.1931 244.221 90.3092 244.273L92.6706 245.272C92.7678 245.309 92.7318 245.286 92.8467 245.336L94.7388 246.084C94.7592 246.09 94.7815 246.095 94.8012 246.101L95.52 246.342C95.6946 246.398 95.5389 246.344 95.6844 246.418L101.056 248.087C101.438 248.142 101.479 248.256 101.87 248.312L104.431 248.872C104.832 248.919 104.641 248.923 104.995 249.027C105.358 249.134 105.863 249.114 106.154 249.229C106.509 249.368 106.627 249.336 107.069 249.354C107.503 249.372 107.542 249.485 107.9 249.563C108.228 249.634 108.568 249.563 108.9 249.603C109.159 249.634 109.465 249.778 109.727 249.816C110.06 249.865 110.406 249.812 110.744 249.839C111.43 249.892 111.798 250.082 112.587 250.076C113.945 250.064 115.651 250.314 116.588 250.314C119.652 250.314 125.61 250.47 128.36 250.166L130.348 250.074C131.238 250.081 131.473 249.978 132.219 249.865C133.051 249.739 133.031 249.911 134.077 249.643C134.431 249.552 134.697 249.622 135.067 249.593C135.418 249.566 135.609 249.418 135.887 249.373C136.215 249.32 136.63 249.353 136.849 249.295L138.118 249.044C138.447 248.961 138.318 248.954 138.536 248.902C138.862 248.825 139.091 248.856 139.428 248.754L140.282 248.568C140.705 248.498 140.765 248.394 141.09 248.336L142.737 247.903C142.996 247.796 142.845 247.866 143.144 247.829C143.453 247.791 143.335 247.798 143.566 247.691L148.438 246.084C148.526 246.056 148.52 246.071 148.627 246.033C148.636 246.03 148.774 245.969 148.794 245.96C149.023 245.856 148.807 245.932 149.015 245.861L150.12 245.446C150.314 245.349 150.28 245.359 150.506 245.272L150.677 245.203C150.842 245.127 150.653 245.203 150.835 245.121L152.309 244.515C152.341 244.501 152.435 244.458 152.474 244.44C152.491 244.432 152.51 244.42 152.527 244.413L161.617 239.422C161.631 239.412 161.65 239.399 161.665 239.39L165.972 236.337C166.113 236.23 166.167 236.173 166.275 236.08L169.116 233.72C169.215 233.629 169.279 233.581 169.375 233.499L171.821 231.225C171.887 231.16 171.886 231.16 171.941 231.105C171.953 231.094 171.969 231.077 171.981 231.065L177.696 224.7C177.752 224.626 177.839 224.507 177.906 224.429L178.061 224.265C178.072 224.253 178.089 224.236 178.1 224.224L179.96 221.684C179.97 221.67 179.984 221.651 179.994 221.637C180.004 221.624 180.018 221.605 180.028 221.591L181.192 219.875C181.321 219.661 181.462 219.442 181.606 219.249L182.835 217.278C182.844 217.263 182.855 217.242 182.865 217.227L183.939 215.342C184.045 215.128 184.01 215.211 184.115 215.038L187.609 207.572C187.7 207.382 187.61 207.595 187.686 207.408C187.713 207.34 187.72 207.304 187.748 207.23L188.314 205.716C188.401 205.513 188.425 205.56 188.485 205.327L190.281 199.362C190.323 199.109 190.346 199.141 190.419 198.94C190.541 198.603 190.465 198.379 190.589 198.07C190.646 197.927 190.694 197.899 190.728 197.729C190.765 197.54 190.734 197.404 190.771 197.212C190.827 196.914 190.944 196.87 190.99 196.391L191.421 194.262C191.464 194.116 191.483 193.95 191.506 193.787C191.559 193.407 191.531 193.181 191.627 192.868C191.812 192.265 191.711 191.593 191.887 191.048C192.112 190.357 191.938 189.863 192.072 189.153C192.21 188.418 192.27 188.149 192.269 187.269C192.266 185.857 192.509 184.753 192.509 183.349C192.509 170.165 192.429 157.212 192.429 144.065C192.429 141.79 192.206 120.658 192.367 119.602L192.834 117.588C192.891 117.433 192.886 117.472 192.909 117.424C192.917 117.407 192.929 117.388 192.937 117.371C192.945 117.355 192.956 117.335 192.964 117.319C192.975 117.297 193.005 117.232 193.015 117.21L193.364 116.519C193.374 116.505 193.388 116.486 193.398 116.473C193.412 116.453 193.454 116.401 193.468 116.382L194.395 115.229C194.881 114.741 195.508 114.382 196.118 114.072C196.324 113.968 196.34 113.977 196.564 113.879L197.936 113.41C198.121 113.382 198.054 113.403 198.198 113.352C198.479 113.252 198.244 113.313 198.414 113.249C198.84 113.086 200.349 113.204 200.349 112.703C200.349 112.386 200.533 111.262 200.109 111.262C198.667 111.262 191.308 111.146 190.484 111.318C190.187 111.38 190.202 111.412 189.99 111.464C189.769 111.517 189.644 111.488 189.421 111.535L186.992 112.466C186.976 112.475 186.955 112.485 186.939 112.494L185.735 113.209C185.72 113.218 185.7 113.23 185.685 113.239L183.021 115.535C183.009 115.546 182.991 115.562 182.979 115.574L177.524 120.759C177.345 120.912 177.361 120.878 177.18 121.055L173.985 124.1C173.967 124.115 173.915 124.158 173.898 124.173L171.902 126.097C171.89 126.108 171.872 126.124 171.86 126.135L167.342 130.418C167.33 130.43 167.314 130.446 167.302 130.458L167.102 130.657C167.09 130.668 167.072 130.685 167.06 130.696C167.043 130.712 166.992 130.755 166.975 130.771L165.662 132.018C164.887 132.655 164.214 133.394 163.477 134.073C163.465 134.084 163.448 134.1 163.435 134.112L163.196 134.352C163.089 134.457 163.143 134.406 163.031 134.507L160.895 136.532C160.825 136.594 160.8 136.615 160.728 136.684L159.089 138.245C158.961 138.374 158.892 138.44 158.762 138.558L158.356 138.952C158.344 138.963 158.327 138.98 158.315 138.991L157.274 139.951C157.202 140.022 157.199 140.03 157.116 140.112C156.958 140.268 156.936 140.275 156.782 140.419L152.556 144.433C152.544 144.444 152.527 144.46 152.515 144.472L151.38 145.577C151.32 145.632 151.28 145.663 151.211 145.728L147.228 149.506C146.767 149.398 146.437 148.912 146.117 148.617C146.105 148.606 146.087 148.59 146.076 148.579C146.064 148.568 146.047 148.551 146.035 148.54L140.298 143.156C140.226 143.095 140.233 143.103 140.169 143.044C140.056 142.94 139.998 142.876 139.888 142.766L136.716 139.777C136.7 139.761 136.653 139.714 136.636 139.698L135.379 138.555C135.366 138.544 135.349 138.528 135.337 138.516L134.644 137.849C134.604 137.813 134.54 137.757 134.517 137.736C134.505 137.725 134.487 137.709 134.476 137.698C134.464 137.687 134.446 137.67 134.435 137.659C134.423 137.647 134.406 137.63 134.394 137.619L127.022 130.591C127.01 130.579 126.994 130.562 126.982 130.551C126.966 130.534 126.919 130.487 126.903 130.47L122.554 126.258C122.496 126.201 122.486 126.189 122.435 126.138C122.423 126.126 122.406 126.109 122.395 126.098L121.795 125.497C121.768 125.471 121.718 125.421 121.675 125.378L120.915 124.617C120.903 124.605 120.887 124.589 120.875 124.577L118.835 122.537C118.823 122.525 118.806 122.509 118.794 122.498C118.782 122.487 118.764 122.471 118.752 122.46L116.781 120.43C116.253 119.791 115.637 119.227 115.062 118.63L114.902 118.47C114.89 118.458 114.873 118.441 114.862 118.43C114.845 118.413 114.798 118.367 114.782 118.35L113.662 117.229C113.65 117.218 113.633 117.202 113.621 117.19L111.725 115.406C111.658 115.343 111.67 115.357 111.599 115.292L106.042 111.009C106.027 111 106.006 110.989 105.992 110.979C105.093 110.431 104.216 109.879 103.231 109.5L101.983 108.988C101.796 108.926 101.762 108.901 101.64 108.85C101.488 108.787 101.345 108.757 101.213 108.718L100.04 108.371C100.023 108.365 100.017 108.35 99.8687 108.302C99.4205 108.155 99.1982 108.256 98.7946 108.096C98.4771 107.971 96.5794 107.866 96.062 107.788C95.1938 107.658 94.1979 107.91 93.3045 107.979C92.9715 108.004 92.6018 107.966 92.2666 107.981C91.9174 107.997 91.7666 108.074 91.4812 108.155C91.1418 108.252 90.9154 108.18 90.5367 108.251L88.9493 108.663C88.6647 108.748 88.4255 108.751 88.1768 108.851C87.6843 109.048 87.1208 109.159 86.6332 109.387C86.414 109.49 86.5232 109.437 86.287 109.521L85.5557 109.83C84.3447 110.381 83.1224 111.033 82.0509 111.845L80.0217 113.576C80.0051 113.593 79.9578 113.64 79.9416 113.656L79.392 114.227C79.3259 114.298 79.3429 114.276 79.2752 114.35L78.1342 115.769C78.1247 115.783 78.1123 115.803 78.1028 115.818C78.0934 115.832 78.0805 115.852 78.0711 115.866C78.0616 115.88 78.0488 115.9 78.0393 115.914L77.6345 116.55C77.1043 117.396 76.5887 118.278 76.227 119.222C76.1548 119.411 76.179 119.403 76.1004 119.576C75.747 120.352 75.4303 121.616 75.3876 122.463C75.3649 122.917 75.2281 122.922 75.2281 123.344V125.104C75.2281 125.483 75.3411 125.521 75.3793 125.833C75.4186 126.152 75.3755 126.407 75.4292 126.743L76.4508 130.281C76.5086 130.467 76.5211 130.454 76.5955 130.617C76.6035 130.634 76.6129 130.654 76.6205 130.672L76.6655 130.787C76.7101 130.897 76.6757 130.837 76.7339 130.958L78.7941 134.339C79.2057 134.775 79.3478 135.001 80.0281 134.945C80.1196 134.552 80.1249 134.175 79.9635 133.809L79.5069 132.666C79.4045 132.437 79.3735 132.345 79.2737 132.099L78.9853 131.267C78.9475 131.173 78.9003 131.12 78.8648 130.988C78.802 130.754 78.8202 130.489 78.7684 130.284C78.6917 129.98 78.5881 129.939 78.5881 129.664V126.944L79.1736 124.729C79.8191 123.199 80.7405 121.912 81.4851 121.28C81.4976 121.27 81.5157 121.254 81.5286 121.244L82.5124 120.548C82.6333 120.475 82.6828 120.441 82.8049 120.36C83.0222 120.215 82.8503 120.316 83.1118 120.187C83.9928 119.752 83.8859 119.895 84.5163 119.672C85.0844 119.47 85.5477 119.423 86.1883 119.423C86.8154 119.423 88.1416 119.577 88.8023 119.85C89.0211 119.94 88.9342 119.909 89.1568 119.975C89.6829 120.132 88.8442 119.851 89.2815 120.01L90.0469 120.365C90.1773 120.431 90.0559 120.373 90.2049 120.447L91.5927 121.219C92.3452 121.662 93.1023 122.238 93.7414 122.831C94.1847 123.242 95.2282 124.022 95.2282 124.544V189.749C95.2282 190.2 95.2108 191.102 95.13 191.491C95.0517 191.869 94.7252 192.392 94.4644 192.666L94.2622 192.864C94.204 192.921 94.2077 192.92 94.1427 192.984L93.4568 193.498C93.2583 193.635 93.1631 193.715 92.9333 193.855L89.7487 195.31L88.2701 195.672C86.6895 195.734 86.8282 195.766 86.8282 197.27C86.8282 197.543 87.2738 197.75 87.5482 197.75H108.748C109.881 197.75 109.628 196.934 109.628 196.15C109.628 195.754 108.816 195.671 108.347 195.671C107.714 195.672 106.987 195.358 106.419 195.199L103.971 194.127C103.248 193.788 102.556 193.245 101.979 192.679C101.604 192.311 101.365 191.824 101.292 191.286C101.107 189.934 101.228 134.389 101.228 127.984C101.228 127.494 101.604 127.994 101.728 128.123L105.755 132.017C105.767 132.029 105.785 132.045 105.797 132.056L112.458 138.436C112.47 138.447 112.487 138.462 112.5 138.474C112.512 138.485 112.529 138.501 112.541 138.512C112.553 138.523 112.57 138.54 112.582 138.551L128.221 153.393C128.233 153.405 128.25 153.421 128.262 153.433L128.502 153.673C128.513 153.685 128.53 153.701 128.542 153.713L130.288 155.327C130.405 155.44 130.457 155.493 130.575 155.6C130.629 155.648 130.644 155.66 130.701 155.714C130.755 155.765 130.804 155.814 130.862 155.873L131.141 156.154C131.153 156.166 131.169 156.183 131.181 156.194C131.193 156.206 131.209 156.222 131.221 156.234L132.994 157.9C133.026 157.932 133.074 157.98 133.115 158.019L133.887 158.768C134.036 158.906 134.061 158.903 134.2 159.015L134.941 159.714C134.953 159.726 134.97 159.742 134.981 159.754C135.064 159.834 135.072 159.838 135.148 159.907L135.435 160.18C135.465 160.21 135.549 160.295 135.555 160.301L136.26 160.955C136.272 160.967 136.289 160.983 136.301 160.994C136.313 161.005 136.33 161.022 136.342 161.033C136.351 161.041 136.432 161.122 136.462 161.153L139.426 163.95C140.409 164.79 140.212 164.593 141.596 163.235L143.818 161.136C143.83 161.125 143.848 161.11 143.86 161.098L147.301 157.819C147.368 157.754 147.326 157.79 147.426 157.705C147.719 157.455 147.865 157.311 148.128 157.047L151.902 153.46C152.003 153.365 151.979 153.392 152.07 153.308L154.956 150.593C155.044 150.508 155.034 150.514 155.115 150.433L158.21 147.527C158.466 147.269 158.663 147.054 158.933 146.81L165.836 140.273C165.848 140.261 165.864 140.244 165.876 140.232L168.796 137.472C168.808 137.461 168.825 137.445 168.837 137.433C168.916 137.361 168.958 137.329 169.048 137.244L169.902 136.418C169.918 136.402 169.965 136.354 169.981 136.337C170.065 136.255 170.035 136.284 170.104 136.22L175.639 130.955C175.651 130.944 175.669 130.929 175.682 130.918L175.814 130.81C175.827 130.799 175.845 130.784 175.858 130.774L180.702 126.178C180.803 126.082 180.779 126.109 180.871 126.026L183.301 123.736C183.313 123.725 183.329 123.708 183.341 123.696L184.236 122.831C184.248 122.82 184.265 122.803 184.277 122.792C184.357 122.719 184.397 122.688 184.488 122.603L185.425 121.7C185.723 121.435 185.987 120.98 186.429 120.943L186.588 181.589C186.588 183.532 186.342 185.171 186.35 187.111C186.354 187.867 186.157 188.267 186.112 188.872C186.055 189.63 186.115 189.816 185.918 190.599C185.839 190.914 185.889 191.15 185.848 191.489L185.265 194.826C185.221 194.975 185.205 194.901 185.128 195.17C185.091 195.3 185.085 195.448 185.069 195.67L184.087 199.489C183.888 200.366 183.213 202.362 182.876 203.238C182.869 203.257 182.862 203.278 182.855 203.297L179.674 210.677C179.556 210.905 179.465 211.087 179.344 211.306L178.644 212.606C178.618 212.651 178.597 212.678 178.557 212.76L176.944 215.467C176.935 215.482 176.923 215.503 176.915 215.518L176.259 216.542C176.183 216.657 176.154 216.693 176.066 216.829L175.264 218.027C175.099 218.248 175.025 218.363 174.863 218.587L174.456 219.139C174.305 219.361 174.209 219.485 174.051 219.695C173.769 220.071 173.511 220.45 173.228 220.791L172.374 221.857C172.363 221.87 172.349 221.889 172.339 221.903L171.439 222.922C171.244 223.134 171.185 223.239 171.012 223.456L169.355 225.239C169.344 225.251 169.327 225.267 169.315 225.279L166.778 227.782C166.706 227.847 166.72 227.83 166.651 227.895L165.902 228.586C165.89 228.597 165.873 228.614 165.862 228.626L165.137 229.261C165.028 229.349 164.995 229.389 164.884 229.488C164.812 229.554 164.817 229.548 164.756 229.6C164.743 229.611 164.725 229.626 164.713 229.637C164.7 229.648 164.681 229.662 164.669 229.673C164.656 229.683 164.637 229.699 164.625 229.709L162.989 231.033C162.896 231.111 162.973 231.044 162.862 231.146L162.234 231.638C162.214 231.651 162.16 231.692 162.141 231.705L158.594 234.239C158.539 234.275 158.501 234.293 158.445 234.33L157.864 234.708C156.871 235.332 155.858 236.011 154.812 236.537L154.354 236.798C154.344 236.804 154.228 236.863 154.196 236.881C154.054 236.959 154.065 236.964 153.888 237.054L152.892 237.577C152.446 237.812 152.058 237.987 151.612 238.217C151.454 238.299 151.471 238.287 151.279 238.364L146.172 240.537C146.027 240.603 146.172 240.556 146.001 240.606L145.449 240.775C145.312 240.838 145.438 240.793 145.281 240.847L142.15 241.876C141.945 241.931 141.865 241.893 141.667 241.953C141.426 242.025 141.508 242.053 141.343 242.109C141.136 242.179 141.132 242.135 140.921 242.166L136.996 243.122C136.732 243.162 136.448 243.172 136.159 243.244C135.417 243.429 134.962 243.411 134.474 243.56C134.17 243.653 134.005 243.674 133.629 243.674C132.854 243.673 132.571 243.913 131.872 243.917C131.193 243.922 130.665 243.932 130.119 244.084C129.344 244.3 118.098 244.232 116.988 244.234L113.194 244.108C112.518 243.959 112.194 243.914 111.386 243.917C110.662 243.919 110.377 243.685 109.71 243.672C108.86 243.656 108.729 243.449 107.948 243.434L105.856 243.046C105.658 242.982 105.924 243.052 105.68 242.982C105.593 242.958 105.574 242.956 105.483 242.939L103.064 242.399C102.576 242.332 102.652 242.247 102.325 242.177C101.658 242.033 100.544 241.767 99.9356 241.526L97.3773 240.644C96.9487 240.546 96.5787 240.32 96.1614 240.18C95.1084 239.828 94.1069 239.375 93.1011 238.921L89.6527 237.249C89.6489 237.247 89.54 237.18 89.5026 237.159C89.3529 237.075 89.3416 237.078 89.1927 236.989C89.1776 236.98 89.1587 236.967 89.1439 236.958L84.6818 234.299C84.6308 234.267 84.6278 234.269 84.5337 234.208C84.4384 234.146 84.3519 234.084 84.2476 234.014L84.0552 233.886C84.0408 233.876 84.0212 233.864 84.0068 233.855L83.0691 233.192C83.0555 233.182 83.0366 233.168 83.023 233.158L80.4461 231.255C80.4337 231.244 80.4155 231.229 80.403 231.218L79.0674 230.154C79.0549 230.143 79.0363 230.128 79.0239 230.117C79.0114 230.106 78.9933 230.091 78.9804 230.08L77.3556 228.665C77.3435 228.654 77.3269 228.637 77.3152 228.626L75.7009 227.12C75.6892 227.108 75.6722 227.091 75.6605 227.08C75.6488 227.068 75.6325 227.052 75.6208 227.04L74.97 226.41C74.8694 226.318 74.8256 226.271 74.7277 226.173L73.9945 225.386C73.8493 225.242 73.8871 225.302 73.742 225.159L70.3302 221.21C70.2969 221.171 70.2607 221.131 70.2183 221.082C70.2077 221.069 70.1919 221.051 70.1813 221.039C70.1703 221.026 70.1548 221.009 70.1443 220.996L65.6527 214.527C65.3832 214.086 65.1523 213.698 64.913 213.266L64.7618 213.018C64.7528 213.002 64.741 212.982 64.7324 212.967C64.6866 212.885 64.6938 212.886 64.6511 212.808L64.3926 212.347C64.3079 212.173 64.2731 212.102 64.2028 211.977L62.7152 209.064C62.6812 208.988 62.6774 208.964 62.6449 208.894L62.4091 208.41C62.3361 208.224 62.3199 208.217 62.2299 208.029C62.1657 207.895 62.1483 207.821 62.0916 207.688C62.0228 207.526 62.0243 207.56 61.9416 207.357L60.9354 205.003C60.6622 204.255 60.3073 203.058 59.9811 202.357L59.3843 200.474C59.3254 200.117 59.4081 200.388 59.2747 200.104C59.0948 199.719 58.9584 199.053 58.8612 198.597C58.7834 198.229 58.6636 198.116 58.6095 197.808L58.416 197.042C58.3151 196.729 58.3839 196.528 58.2463 196.172C58.0793 195.74 58.1575 195.857 58.0985 195.359C58.0437 194.899 57.8952 195.032 57.8668 194.551C57.8049 193.489 57.7398 194.2 57.6174 192.88C57.5879 192.565 57.4239 192.113 57.3226 191.175L57.1831 190.354C57.137 190.141 57.0773 189.622 57.0678 189.43C57.0508 189.075 57.0973 188.854 57.0221 188.515C56.9439 188.161 56.9303 188.027 56.8724 187.625C56.7855 187.024 56.8494 186.377 56.8309 185.746C56.8139 185.183 56.6721 184.486 56.665 183.912C56.648 182.543 56.5882 181.385 56.5882 179.989V123.104C56.5882 121.492 56.5954 119.189 56.8063 117.641C56.9329 116.713 56.7647 115.848 56.9412 114.896C57.0811 114.142 57.0561 113.326 57.1831 112.738L57.6272 109.822C57.6514 109.45 57.6408 109.645 57.7168 109.431L57.8268 109.061C57.8789 108.781 57.8362 108.503 57.9111 108.265L59.5136 102.187C59.743 101.692 59.7547 101.221 59.9811 100.735C60.1175 100.442 60.0076 100.795 60.1149 100.389L60.5666 99.1601C60.5768 99.1374 60.6289 98.996 60.632 98.9855C60.6614 98.8876 60.655 98.8676 60.6769 98.7905L61.1577 97.5912C61.1645 97.5715 61.1694 97.5493 61.1762 97.5296C61.183 97.5107 61.1898 97.4891 61.197 97.4706L64.1926 91.1055C64.201 91.0893 64.2108 91.0681 64.2191 91.0519C64.2274 91.036 64.238 91.0152 64.2463 90.9993L65.0521 89.565C65.1814 89.3499 65.2876 89.1882 65.4089 88.9614C65.4323 88.9176 65.4652 88.848 65.4909 88.8034L69.2617 83.2142C69.3392 83.1107 69.4046 83.0192 69.4696 82.9417L70.3177 81.8699C70.4221 81.7482 70.419 81.7686 70.5426 81.6148L71.0748 80.9469C71.0857 80.9344 71.1012 80.9163 71.1118 80.9038L73.2786 78.4305C73.29 78.4184 73.3054 78.4007 73.3168 78.3886L74.9409 76.7327C74.9926 76.6776 75.0081 76.6579 75.0546 76.6061L76.7543 74.9458C76.7611 74.9394 76.8582 74.8532 76.8816 74.8331L79.8633 72.2944C79.9476 72.2185 80.0281 72.1576 80.1301 72.0813L83.249 69.7603C83.2637 69.7508 83.2834 69.7384 83.2982 69.7289L92.5478 64.4183C92.6302 64.3854 92.6517 64.3862 92.7243 64.3548C92.8966 64.2807 92.7137 64.365 92.8834 64.2739C92.9004 64.2648 92.9684 64.2187 93.0365 64.187C93.1363 64.1394 93.1098 64.1586 93.2088 64.1193L96.9702 62.6007C97.1308 62.5459 97.1788 62.4972 97.2983 62.4484C97.316 62.4412 97.3365 62.4318 97.355 62.4253C97.3746 62.4185 97.3954 62.4121 97.4158 62.4061L98.0194 62.2099C98.0368 62.2024 98.0568 62.1922 98.075 62.1854L100.543 61.3739C100.721 61.33 100.773 61.3482 100.942 61.2922L101.698 61.0881C102.163 61.0057 101.875 60.9222 102.427 60.8576C102.938 60.7975 102.827 60.7162 103.171 60.6407L104.773 60.3232C104.832 60.3107 104.905 60.2907 104.962 60.2721C105.459 60.1127 106.61 59.8473 107.15 59.8201C107.669 59.7937 107.507 59.7483 107.927 59.6376C108.132 59.5835 108.503 59.6017 108.819 59.5692C109.095 59.5408 109.316 59.4274 109.581 59.3707C110.203 59.2369 110.66 59.3738 111.316 59.1855C111.993 58.9916 113.144 59.1254 114.009 58.9992C114.284 58.9588 114.441 58.8582 114.828 58.8582H128.348L130.193 59.0941C131.107 59.1693 131.168 59.0559 132.179 59.2675C132.524 59.3401 132.715 59.3276 133.151 59.3356C133.562 59.3431 133.692 59.4187 134.016 59.5113C134.368 59.6119 134.565 59.5397 134.97 59.5967C135.279 59.6402 135.521 59.7804 135.873 59.8137L138.215 60.2721C138.646 60.4097 139.848 60.5734 140.23 60.737C140.589 60.8912 140.753 60.8149 141.068 60.9389C141.219 60.999 141.231 61.0364 141.411 61.0753C141.649 61.1263 141.655 61.0772 141.891 61.1558L143.086 61.561C143.261 61.615 143.356 61.6222 143.531 61.6759C143.669 61.7186 143.746 61.7613 143.879 61.8074L146.262 62.6253C146.522 62.7031 146.46 62.702 146.66 62.787L150.193 64.2142C150.327 64.2773 150.211 64.2369 150.398 64.3295L153.613 65.9146C153.744 65.9781 153.811 66.0193 153.977 66.1104C155.403 66.8916 156.468 67.4752 158.056 68.5119C158.07 68.5213 158.09 68.5338 158.104 68.5433L158.296 68.6714C158.447 68.7734 158.485 68.8075 158.632 68.8959L159.976 69.7916C159.99 69.8011 160.01 69.8132 160.025 69.823C160.039 69.8325 160.059 69.8453 160.073 69.8548C160.859 70.3926 161.648 70.9406 162.367 71.5612L165.435 74.0935C165.447 74.1045 165.464 74.1211 165.476 74.1321L168.05 76.5188C168.241 76.7093 168.383 76.8431 168.564 77.0438L172.205 81.1642C172.507 81.7009 172.668 82.3888 172.668 83.0204C172.668 83.438 172.313 84.3931 172.085 84.8372L171.514 85.9457C171.453 86.0538 171.466 86.0519 171.405 86.157L171.033 86.7455C170.628 87.3759 170.163 87.9402 169.636 88.4682L169.101 88.9731C169.016 89.0566 169.02 89.0544 168.941 89.1334C168.924 89.1496 168.876 89.1961 168.86 89.2127L168.429 89.7407C168.5 90.0465 168.631 90.2487 168.803 90.4868C169.005 90.7669 169.127 90.9411 169.548 90.9411C169.762 90.9411 169.671 90.8905 169.815 90.8069L171.483 89.675C172.471 89.1001 173.858 87.9663 174.814 87.4061C174.952 87.3252 174.947 87.3271 175.106 87.2187L180.839 83.2702C181.008 83.1481 180.954 83.1908 181.134 83.0861C182.101 82.5241 183.891 81.1714 184.984 80.456C184.999 80.4465 185.018 80.4333 185.032 80.4242C185.259 80.2753 185.357 80.2031 185.548 80.0591C185.642 79.988 185.709 79.9359 185.831 79.8629C186.128 79.6861 187.149 79.1146 187.149 78.7801C187.149 78.3632 186.734 77.5 186.189 77.5C185.92 77.5 185.311 77.8821 184.97 78.0416L182.181 78.9324C181.367 79.0292 179.661 79.1834 178.911 78.8572L178.645 78.7238C178.355 78.6062 178.418 78.6648 178.151 78.4974L177.045 77.5234C176.981 77.449 176.957 77.4199 176.896 77.3526L174.655 74.7935C174.644 74.781 174.629 74.7628 174.618 74.7504L172.822 72.8667C172.768 72.8111 172.714 72.7495 172.668 72.6996L170.762 70.8457C170.745 70.8299 170.695 70.7853 170.678 70.7694L170.596 70.6919C170.482 70.5865 170.515 70.6167 170.382 70.506L166.144 66.9037C166.039 66.8255 166.011 66.8149 165.905 66.7427L165.414 66.3538C165.401 66.3428 165.383 66.3277 165.371 66.3167L163.709 65.0978C163.696 65.088 163.677 65.0737 163.663 65.0638L162.749 64.4583C162.735 64.4481 162.718 64.433 162.705 64.4228C162.691 64.4126 162.674 64.3964 162.661 64.3858C162.649 64.3756 162.632 64.3589 162.618 64.3487L161.994 63.933C161.98 63.9232 161.962 63.9084 161.949 63.8986C161.935 63.8888 161.916 63.874 161.903 63.8642L160.253 62.7938C159.885 62.6049 159.717 62.4953 159.395 62.2919L157.462 61.1849C157.342 61.1123 157.42 61.1471 157.265 61.0621L155.695 60.2325C154.872 59.7566 153.976 59.3567 153.109 58.9773L151.232 58.1348C151.062 58.0664 151.002 58.032 150.778 57.9485C150.506 57.8468 150.508 57.8276 150.276 57.7312C150.198 57.699 150.143 57.6839 150.045 57.6416C149.207 57.2784 148.35 56.9155 147.482 56.685L144.739 55.748C144.521 55.6728 144.354 55.6834 144.155 55.6116C143.926 55.5285 144.022 55.4907 143.697 55.4298L142.6 55.1668C142.284 55.1131 142.342 55.0507 142.071 54.9755C141.856 54.9162 141.743 54.9487 141.518 54.8886C141.224 54.81 141.273 54.7597 140.977 54.7091L139.883 54.443C139.722 54.4139 139.515 54.4048 139.322 54.3644C139.006 54.2982 139.181 54.2812 138.774 54.1928C138.638 54.1633 138.425 54.1622 138.193 54.1334C137.733 54.0768 137.695 53.9346 136.988 53.8983C136.69 53.8829 136.605 53.819 136.411 53.7551C135.945 53.6013 135.616 53.7313 135.185 53.6217C134.822 53.5295 134.452 53.4161 134.027 53.4187C133.432 53.4225 133.349 53.3269 132.864 53.2226C132.365 53.1152 131.309 53.1893 130.371 52.9954C129.046 52.7218 114.828 52.8802 114.567 52.9161C113.85 53.0143 113.299 52.8692 112.606 53.0351C111.85 53.2161 111.064 53.082 109.798 53.3473C109.143 53.4845 108.986 53.3533 107.98 53.6092C107.64 53.6954 107.368 53.6236 107.018 53.6871C106.595 53.7642 106.633 53.8753 106.189 53.8983L101.869 54.7786C101.33 54.9929 101.388 54.8852 100.691 55.1206L99.055 55.5647C98.9091 55.6248 99.0508 55.5836 98.8811 55.6309C98.7678 55.6622 98.7254 55.6555 98.6101 55.68C98.465 55.711 98.4027 55.7412 98.2541 55.804L89.6848 59.1549C89.6685 59.1632 89.6481 59.1734 89.6311 59.1814C89.5215 59.2328 89.418 59.2664 89.297 59.3273C89.1379 59.407 89.1099 59.4263 88.9202 59.5102C88.797 59.5646 88.7153 59.6107 88.5963 59.6663L88.3166 59.7868C88.2947 59.7974 88.2346 59.8318 88.2131 59.8432L87.5316 60.2015C87.4106 60.2653 87.3252 60.3024 87.2107 60.3606L83.9237 62.194C83.9085 62.2031 83.8878 62.2141 83.8723 62.2228L81.6049 63.6355C81.5036 63.7028 81.4152 63.7629 81.3203 63.8309L80.993 64.0634C80.767 64.2078 80.5856 64.2977 80.3588 64.4693L79.5133 65.0638C79.4997 65.0737 79.4808 65.088 79.4676 65.0982L79.141 65.3314C78.923 65.48 78.7684 65.6039 78.5431 65.7736L75.7013 67.9722C75.6892 67.9831 75.6726 68.0001 75.6605 68.0115L72.2884 70.9595C72.0911 71.1459 71.9652 71.2932 71.7676 71.4788C71.6648 71.576 71.6179 71.6096 71.5151 71.7063L70.9833 72.2147C70.9138 72.279 70.9429 72.2514 70.8605 72.3319C70.7736 72.4169 70.7822 72.4105 70.7006 72.4921L70.5808 72.6123C70.5022 72.6943 70.4961 72.7041 70.4281 72.7794L67.9162 75.4677C67.8002 75.5932 67.7609 75.6393 67.6471 75.7588L66.9196 76.6311C66.909 76.6439 66.8939 76.6621 66.8829 76.6745L66.81 76.7619C66.7994 76.7743 66.7846 76.7928 66.7737 76.8053L64.2909 79.9227C64.2807 79.9363 64.2663 79.9548 64.2561 79.9684L64.1873 80.0591C64.1771 80.0727 64.1632 80.0916 64.1533 80.1052L62.7897 82.0214C62.7802 82.0358 62.7678 82.0558 62.7583 82.0706L62.1766 82.9289C62.1672 82.9429 62.1524 82.961 62.1426 82.975C62.1332 82.9886 62.1184 83.0071 62.1086 83.0211C62.0992 83.0351 62.0856 83.054 62.0761 83.068L60.4634 85.6158C60.4547 85.6309 60.4426 85.6509 60.4335 85.666C60.3572 85.7934 60.4124 85.6906 60.3413 85.8138L60.285 85.9174C60.2736 85.9389 60.243 86.0028 60.2317 86.024L59.4731 87.3457C59.4644 87.3611 59.4531 87.3816 59.4444 87.3967C59.4354 87.4122 59.4233 87.4318 59.4142 87.447L59.0929 88.0056C59.0154 88.1325 59.0782 88.0222 59.0022 88.1549L57.1884 91.7813C57.1011 91.9994 57.0856 91.9945 57.0044 92.1574L56.7711 92.6442C56.7231 92.7655 56.739 92.7579 56.6865 92.8796L55.3108 96.144C55.2533 96.2869 55.2295 96.4041 55.169 96.5624C55.1093 96.7197 55.0851 96.7306 55.0209 96.8942C54.9536 97.0651 54.9464 97.1539 54.8856 97.3191L54.4154 98.6888C54.4097 98.7107 54.4063 98.7326 54.4003 98.7538L53.4667 101.58C53.4233 101.799 53.441 101.834 53.3673 102.041L53.136 102.85C53.0714 103.13 53.0918 102.973 53.0098 103.204L52.8155 104.05C52.7388 104.233 52.7074 104.25 52.6791 104.473C52.6216 104.923 52.5638 104.927 52.464 105.298C52.3529 105.711 52.481 105.719 52.3019 106.176L51.7758 108.77C51.6627 109.175 51.6892 109.7 51.5883 110.103L51.3906 111.505C51.3778 112.117 51.1393 112.532 51.1491 113.344C51.1555 113.903 51.1147 113.837 51.0233 114.258C50.8932 114.857 50.9057 115.531 50.9084 116.224C50.9114 117.06 50.668 118.774 50.668 120.223Z" fill="black"/>
<path fill-rule="evenodd" clip-rule="evenodd" d="M14.4156 187.569H15.4553C15.9349 187.569 18.6581 184.646 18.9155 184.389L21.4357 181.869C22.2135 181.102 22.0956 180.998 22.0956 180.129C22.0956 179.605 21.9312 179.562 21.9036 179.52C21.4364 178.822 17.9759 175.488 17.1954 174.708C16.7298 174.242 15.5279 172.738 14.2168 173.369C13.7489 173.595 9.94479 177.519 9.35556 178.108L8.16728 179.32C7.9817 179.526 7.88079 179.624 7.85547 179.962V180.941L9.5022 182.882C9.51354 182.894 9.53055 182.91 9.54227 182.922L9.78227 183.162C9.79437 183.173 9.81175 183.189 9.82346 183.201L10.4221 183.802C10.4698 183.85 10.4815 183.862 10.5419 183.922L12.5421 185.922C12.5587 185.939 12.6056 185.986 12.6222 186.002L13.0625 186.442C13.0742 186.454 13.0916 186.47 13.1033 186.481L13.6612 187.043C13.6733 187.055 13.6903 187.071 13.7024 187.082C13.8407 187.208 14.2735 187.569 14.4156 187.569Z" fill="black"/>
<path fill-rule="evenodd" clip-rule="evenodd" d="M228.26 175.207C228.26 175.791 228.194 176.011 228.349 176.319C228.356 176.335 228.37 176.353 228.379 176.369L234.483 182.505C234.498 182.514 234.519 182.525 234.534 182.534C234.549 182.542 234.569 182.555 234.584 182.563C235.034 182.825 234.764 182.727 235.94 182.727C236.092 182.727 236.555 182.333 236.695 182.202L237.534 181.361C237.581 181.313 237.593 181.301 237.653 181.241C237.665 181.229 237.682 181.212 237.693 181.201L239.934 178.961C239.945 178.949 239.962 178.932 239.974 178.921L240.813 178.08C240.89 178.004 240.923 177.97 241.014 177.88L242.39 176.456C242.399 176.442 242.414 176.424 242.422 176.409C242.464 176.336 242.487 176.245 242.5 176.144V175.076C242.498 175.039 242.494 175.005 242.489 174.978C242.444 174.753 242.308 174.612 242.188 174.478C241.173 173.349 237.897 170.121 236.682 168.944C236.16 168.439 235.949 168.406 235.22 168.406C234.396 168.406 233.665 169.362 233.2 169.826L229.76 173.267C229.385 173.642 228.26 174.617 228.26 175.207Z" fill="black"/>
<path d="M19.9363 150.808C21.312 150.808 22.4001 149.72 22.4001 148.344V142.072C22.4001 135.032 17.5041 130.168 11.2003 130.168H11.136C4.83212 130.168 0 135.032 0 142.072V148.344C0 149.72 1.08813 150.808 2.46388 150.808H19.9363ZM17.952 145.88H4.44813V142.072C4.44813 138.04 7.23213 135.32 11.2003 135.32H11.2641C15.2323 135.32 17.952 138.04 17.952 142.072V145.88Z" fill="black"/>
<path d="M20.5462 107.989C21.9107 108.172 23.1314 107.24 23.3147 105.876C23.4977 104.512 22.56 103.291 21.1956 103.107L3.50095 100.749C2.14146 100.566 0.915375 101.504 0.737737 102.863C0.554808 104.228 1.48722 105.448 2.85163 105.631L20.5462 107.989Z" fill="black"/>
<path d="M33.1337 74.3423C35.3678 70.0624 34.7211 65.9 30.7764 63.8489L30.7179 63.8164C27.2577 62.0124 24.6283 63.5336 21.4799 67.0157C18.8135 69.9876 17.9415 70.6195 16.6372 69.9369L16.5843 69.9105C15.6152 69.4055 15.3106 68.1296 16.1803 66.453C16.8893 65.0897 18.0825 63.9796 19.6858 62.9773C20.0603 62.7388 20.3544 62.4569 20.5747 62.0309C21.1655 60.8974 20.7599 59.5304 19.6257 58.9396C18.7742 58.4993 17.9253 58.672 17.3909 59.0065C15.3223 60.2043 13.6045 61.9742 12.3531 64.3912C10.237 68.4478 11.1131 72.5841 14.7172 74.4584L14.7758 74.4852C18.7205 76.542 21.1704 74.5347 24.276 71.0685C26.8571 68.1866 27.7755 67.806 28.8829 68.3809L28.9415 68.4074C30.1022 69.0143 30.2515 70.4657 29.3225 72.2489C28.3186 74.1813 26.7777 75.4717 24.8917 76.3984C24.5448 76.5787 24.1381 76.8761 23.8425 77.44C23.2522 78.5743 23.6577 79.941 24.7919 80.5317C25.4734 80.8858 26.2731 80.873 26.8665 80.5657C29.6074 79.1832 31.7754 76.9566 33.1337 74.3423Z" fill="black"/>
<path d="M52.2647 45.2475C53.1642 46.2888 54.7002 46.4029 55.7415 45.5034C56.7775 44.6031 56.8916 43.0671 55.9917 42.0262L45.8104 30.236L49.3934 27.1424C50.333 26.328 50.4418 24.8827 49.627 23.9374C48.8121 22.9974 47.3672 22.889 46.4219 23.7034L35.529 33.1179C34.5837 33.9327 34.4805 35.3727 35.2954 36.3176C36.1103 37.2629 37.5555 37.3717 38.4951 36.5516L42.0781 33.4577L52.2647 45.2475Z" fill="black"/>
<path d="M80.7632 27.4031C81.2614 28.6866 82.6655 29.3042 83.9486 28.806C85.2321 28.3132 85.855 26.9042 85.3569 25.6206L78.8931 8.9794C78.4003 7.69625 76.9909 7.07829 75.7077 7.57643C74.4246 8.06928 73.8066 9.47828 74.3052 10.7618L80.7632 27.4031Z" fill="black"/>
<path d="M108.488 20.352C108.488 21.696 109.576 22.7841 110.92 22.7841C112.264 22.7841 113.352 21.696 113.352 20.352V8.352L123.208 21.2803C123.88 22.1443 124.585 22.7203 125.768 22.7203H125.929C127.304 22.7203 128.392 21.6321 128.392 20.256V2.43213C128.392 1.08813 127.304 0 125.96 0C124.616 0 123.529 1.08813 123.529 2.43213V13.9843L114.024 1.50388C113.352 0.639875 112.648 0.0638718 111.464 0.0638718H110.952C109.576 0.0638718 108.488 1.15201 108.488 2.52813V20.352Z" fill="black"/>
<path d="M156.706 22.929C156.329 24.2519 157.072 25.5951 158.394 25.9723C159.718 26.3495 161.061 25.6072 161.443 24.284L165.721 9.30309L170.272 10.5995C171.472 10.9453 172.74 10.24 173.081 9.03966C173.421 7.83929 172.721 6.57617 171.52 6.23034L157.676 2.27695C156.476 1.93679 155.212 2.64243 154.867 3.83752C154.527 5.0379 155.232 6.3063 156.427 6.64646L160.983 7.94814L156.706 22.929Z" fill="black"/>
<path d="M187.52 36.4627C186.711 37.5762 186.955 39.0986 188.068 39.9017C189.177 40.7113 190.699 40.4728 191.508 39.3594L201.988 24.9106C202.797 23.7968 202.559 22.2748 201.445 21.4712C200.332 20.6624 198.81 20.9005 198.001 22.014L187.52 36.4627Z" fill="black"/>
<path d="M211.866 63.9711L212.055 64.2311C212.842 65.3181 213.98 65.6397 215.263 65.3412L233.767 61.0041C234.071 60.9433 234.486 60.8008 234.799 60.5744C235.886 59.7868 236.076 58.3078 235.289 57.2208C234.598 56.2612 233.471 56.0087 232.635 56.2185L217.44 60.2138L225.905 47.1847C226.485 46.2946 226.594 45.1898 225.844 44.1505C225.04 43.037 223.544 42.777 222.431 43.5809C222.091 43.8235 221.86 44.1505 221.639 44.5099L211.816 60.5691C211.132 61.6999 211.078 62.8792 211.866 63.9711Z" fill="black"/>
<path d="M227.134 102.383C228.368 109.184 234.398 113.195 240.661 112.053L240.725 112.042C246.988 110.906 251.171 105.105 249.936 98.309C248.702 91.5081 242.672 87.4969 236.41 88.6383L236.346 88.6493C230.082 89.7854 225.9 95.5869 227.134 102.383ZM231.617 101.636C230.905 97.7348 233.549 94.3922 237.329 93.7074L237.392 93.6911C241.166 93.0059 244.747 95.1534 245.453 99.055C246.166 102.962 243.521 106.299 239.743 106.99L239.678 107C235.899 107.686 232.324 105.538 231.617 101.636Z" fill="black"/>
<path d="M228.34 143.672C228.34 148.504 230.836 151.897 235.284 151.897H235.348C239.252 151.897 240.884 149.336 242.068 144.792C243.06 140.92 243.54 139.96 245.012 139.96H245.076C246.164 139.96 247.028 140.952 247.028 142.84C247.028 144.376 246.484 145.912 245.524 147.544C245.3 147.928 245.172 148.312 245.172 148.792C245.172 150.073 246.164 151.096 247.444 151.096C248.404 151.096 249.076 150.553 249.396 150.008C250.676 147.992 251.38 145.624 251.38 142.904C251.38 138.328 248.692 135.064 244.628 135.064H244.564C240.116 135.064 238.868 137.976 237.716 142.488C236.756 146.232 236.116 147 234.868 147H234.804C233.492 147 232.692 145.784 232.692 143.768C232.692 141.592 233.46 139.736 234.708 138.04C234.932 137.72 235.156 137.272 235.156 136.632C235.156 135.352 234.164 134.328 232.884 134.328C232.116 134.328 231.412 134.712 231.028 135.256C229.236 137.752 228.34 140.728 228.34 143.672Z" fill="black"/>
<path d="M75.4763 277.309C75.0057 278.704 75.7903 279.881 77.2458 280.372L88.7674 284.261C89.8891 284.639 91.0955 284.067 91.4739 282.945C91.8526 281.823 91.2501 280.606 90.1284 280.228L82.7303 277.731L87.0874 276.23C91.8295 274.588 94.242 273.443 95.4394 269.896L95.4598 269.836C96.8004 265.863 94.7594 262.303 90.3631 260.82C87.1493 259.735 84.7592 260.212 82.3962 261.61C81.9294 261.891 81.5333 262.365 81.3595 262.881C80.9604 264.063 81.5825 265.321 82.7651 265.72C83.4927 265.965 84.151 265.816 84.5672 265.585C86.1791 264.71 87.3137 264.451 88.6475 264.901C90.3154 265.465 91.1704 266.834 90.5668 268.623C89.973 270.381 88.5429 271.216 85.1787 272.478L77.4768 275.384C76.4737 275.755 75.7835 276.399 75.4763 277.309ZM111.655 285.951C111.655 287.295 112.711 288.351 114.055 288.351C115.399 288.351 116.487 287.295 116.487 285.951V274.815L120.743 281.376C121.255 282.144 121.895 282.624 122.791 282.624C123.687 282.624 124.327 282.144 124.839 281.376L129.159 274.719V285.888C129.159 287.232 130.247 288.351 131.591 288.351C132.967 288.351 134.055 287.263 134.055 285.888V268.095C134.055 266.719 132.967 265.631 131.591 265.631H131.047C130.055 265.631 129.351 266.047 128.839 266.879L122.855 276.607L116.903 266.911C116.455 266.175 115.719 265.631 114.663 265.631H114.119C112.743 265.631 111.655 266.719 111.655 268.095V285.951ZM166.561 283.205C169.735 282.101 171.875 280.17 173.229 278.512C174.116 277.458 174.303 276.342 173.83 274.982L172.042 269.845C171.589 268.545 170.204 267.875 168.905 268.328L163.585 270.179C162.467 270.568 161.876 271.791 162.266 272.909C162.655 274.027 163.867 274.588 164.985 274.199L168.128 273.104L169.18 276.127C168.296 277.383 166.932 278.332 165.24 278.922C161.492 280.226 157.844 278.311 156.497 274.442L156.476 274.382C155.224 270.786 156.872 266.858 160.257 265.679C162.252 264.985 163.801 265.056 165.386 265.521C165.802 265.646 166.31 265.74 166.974 265.509C168.244 265.067 168.914 263.682 168.472 262.413C168.156 261.506 167.422 261.05 166.853 260.876C164.486 260.209 162.118 260.22 158.914 261.335C152.508 263.565 149.538 270.122 151.631 276.136L151.652 276.197C153.83 282.452 159.973 285.498 166.561 283.205Z" fill="black"/>
</svg>
